<mxfile host="app.diagrams.net" agent="Mozilla/5.0 (X11; Linux x86_64; rv:131.0) Gecko/20100101 Firefox/131.0" version="24.7.17">
  <diagram name="Page-1" id="Od8qOUJW0WwSjGonkB-C">
    <mxGraphModel dx="618" dy="787" grid="1" gridSize="10" guides="1" tooltips="1" connect="1" arrows="1" fold="1" page="1" pageScale="1" pageWidth="850" pageHeight="1100" math="0" shadow="0">
      <root>
        <mxCell id="0" />
        <mxCell id="1" parent="0" />
        <mxCell id="T88mWszFGBJ1sCKfMsfL-3" style="edgeStyle=orthogonalEdgeStyle;rounded=0;orthogonalLoop=1;jettySize=auto;html=1;entryX=0.5;entryY=0;entryDx=0;entryDy=0;" edge="1" parent="1" source="T88mWszFGBJ1sCKfMsfL-1" target="T88mWszFGBJ1sCKfMsfL-2">
          <mxGeometry relative="1" as="geometry" />
        </mxCell>
        <mxCell id="T88mWszFGBJ1sCKfMsfL-1" value="&lt;div&gt;start&lt;/div&gt;" style="ellipse;whiteSpace=wrap;html=1;" vertex="1" parent="1">
          <mxGeometry x="280" y="340" width="120" height="80" as="geometry" />
        </mxCell>
        <mxCell id="T88mWszFGBJ1sCKfMsfL-9" style="edgeStyle=orthogonalEdgeStyle;rounded=0;orthogonalLoop=1;jettySize=auto;html=1;entryX=0.5;entryY=0;entryDx=0;entryDy=0;" edge="1" parent="1" source="T88mWszFGBJ1sCKfMsfL-2" target="T88mWszFGBJ1sCKfMsfL-4">
          <mxGeometry relative="1" as="geometry" />
        </mxCell>
        <mxCell id="T88mWszFGBJ1sCKfMsfL-2" value="&lt;div&gt;&lt;br&gt;&lt;/div&gt;&lt;div&gt;enter length&lt;/div&gt;(n)" style="shape=parallelogram;perimeter=parallelogramPerimeter;whiteSpace=wrap;html=1;fixedSize=1;" vertex="1" parent="1">
          <mxGeometry x="280" y="480" width="120" height="60" as="geometry" />
        </mxCell>
        <mxCell id="T88mWszFGBJ1sCKfMsfL-10" style="edgeStyle=orthogonalEdgeStyle;rounded=0;orthogonalLoop=1;jettySize=auto;html=1;entryX=0.5;entryY=0;entryDx=0;entryDy=0;" edge="1" parent="1" source="T88mWszFGBJ1sCKfMsfL-4" target="T88mWszFGBJ1sCKfMsfL-5">
          <mxGeometry relative="1" as="geometry" />
        </mxCell>
        <mxCell id="T88mWszFGBJ1sCKfMsfL-4" value="i = 0" style="rounded=1;whiteSpace=wrap;html=1;" vertex="1" parent="1">
          <mxGeometry x="280" y="620" width="120" height="60" as="geometry" />
        </mxCell>
        <mxCell id="T88mWszFGBJ1sCKfMsfL-11" style="edgeStyle=orthogonalEdgeStyle;rounded=0;orthogonalLoop=1;jettySize=auto;html=1;exitX=0.5;exitY=1;exitDx=0;exitDy=0;entryX=0.5;entryY=0;entryDx=0;entryDy=0;" edge="1" parent="1" source="T88mWszFGBJ1sCKfMsfL-5" target="T88mWszFGBJ1sCKfMsfL-7">
          <mxGeometry relative="1" as="geometry" />
        </mxCell>
        <mxCell id="T88mWszFGBJ1sCKfMsfL-16" value="true" style="edgeLabel;html=1;align=center;verticalAlign=middle;resizable=0;points=[];" vertex="1" connectable="0" parent="T88mWszFGBJ1sCKfMsfL-11">
          <mxGeometry x="-0.12" y="-1" relative="1" as="geometry">
            <mxPoint as="offset" />
          </mxGeometry>
        </mxCell>
        <mxCell id="T88mWszFGBJ1sCKfMsfL-18" style="edgeStyle=orthogonalEdgeStyle;rounded=0;orthogonalLoop=1;jettySize=auto;html=1;entryX=1;entryY=0.5;entryDx=0;entryDy=0;" edge="1" parent="1" source="T88mWszFGBJ1sCKfMsfL-5" target="T88mWszFGBJ1sCKfMsfL-17">
          <mxGeometry relative="1" as="geometry" />
        </mxCell>
        <mxCell id="T88mWszFGBJ1sCKfMsfL-19" value="false" style="edgeLabel;html=1;align=center;verticalAlign=middle;resizable=0;points=[];" vertex="1" connectable="0" parent="T88mWszFGBJ1sCKfMsfL-18">
          <mxGeometry x="-0.075" relative="1" as="geometry">
            <mxPoint as="offset" />
          </mxGeometry>
        </mxCell>
        <mxCell id="T88mWszFGBJ1sCKfMsfL-5" value="i &amp;lt; n" style="rhombus;whiteSpace=wrap;html=1;" vertex="1" parent="1">
          <mxGeometry x="280" y="730" width="120" height="80" as="geometry" />
        </mxCell>
        <mxCell id="T88mWszFGBJ1sCKfMsfL-12" style="edgeStyle=orthogonalEdgeStyle;rounded=0;orthogonalLoop=1;jettySize=auto;html=1;exitX=0.5;exitY=1;exitDx=0;exitDy=0;entryX=0.5;entryY=0;entryDx=0;entryDy=0;" edge="1" parent="1" source="T88mWszFGBJ1sCKfMsfL-7" target="T88mWszFGBJ1sCKfMsfL-8">
          <mxGeometry relative="1" as="geometry" />
        </mxCell>
        <mxCell id="T88mWszFGBJ1sCKfMsfL-7" value="enter how many smaller numbers are to the left and to the right" style="shape=parallelogram;perimeter=parallelogramPerimeter;whiteSpace=wrap;html=1;fixedSize=1;" vertex="1" parent="1">
          <mxGeometry x="270" y="860" width="140" height="70" as="geometry" />
        </mxCell>
        <mxCell id="T88mWszFGBJ1sCKfMsfL-14" style="edgeStyle=orthogonalEdgeStyle;rounded=0;orthogonalLoop=1;jettySize=auto;html=1;exitX=1;exitY=0.5;exitDx=0;exitDy=0;entryX=0.5;entryY=1;entryDx=0;entryDy=0;" edge="1" parent="1" source="T88mWszFGBJ1sCKfMsfL-8" target="T88mWszFGBJ1sCKfMsfL-13">
          <mxGeometry relative="1" as="geometry" />
        </mxCell>
        <mxCell id="T88mWszFGBJ1sCKfMsfL-8" value="add them and print" style="rounded=1;whiteSpace=wrap;html=1;" vertex="1" parent="1">
          <mxGeometry x="280" y="980" width="120" height="60" as="geometry" />
        </mxCell>
        <mxCell id="T88mWszFGBJ1sCKfMsfL-15" style="edgeStyle=orthogonalEdgeStyle;rounded=0;orthogonalLoop=1;jettySize=auto;html=1;exitX=0.5;exitY=0;exitDx=0;exitDy=0;" edge="1" parent="1" source="T88mWszFGBJ1sCKfMsfL-13">
          <mxGeometry relative="1" as="geometry">
            <mxPoint x="340" y="700" as="targetPoint" />
            <Array as="points">
              <mxPoint x="510" y="700" />
            </Array>
          </mxGeometry>
        </mxCell>
        <mxCell id="T88mWszFGBJ1sCKfMsfL-13" value="i++" style="rounded=1;whiteSpace=wrap;html=1;" vertex="1" parent="1">
          <mxGeometry x="450" y="865" width="120" height="60" as="geometry" />
        </mxCell>
        <mxCell id="T88mWszFGBJ1sCKfMsfL-17" value="end" style="ellipse;whiteSpace=wrap;html=1;" vertex="1" parent="1">
          <mxGeometry x="80" y="730" width="120" height="80" as="geometry" />
        </mxCell>
      </root>
    </mxGraphModel>
  </diagram>
</mxfile>
